<svg xmlns="http://www.w3.org/2000/svg" version="1.1" xmlns:xlink="http://www.w3.org/1999/xlink" xmlns:svgjs="http://svgjs.dev/svgjs" width="1500" height="295" viewBox="0 0 1500 295"><g transform="matrix(1,0,0,1,-0.9090909090911055,0.26880838750321345)"><svg viewBox="0 0 396 78" data-background-color="#13425c" preserveAspectRatio="xMidYMid meet" height="295" width="1500" xmlns="http://www.w3.org/2000/svg" xmlns:xlink="http://www.w3.org/1999/xlink"><g id="tight-bounds" transform="matrix(1,0,0,1,0.24000000000003752,-0.07107476008559388)"><svg viewBox="0 0 395.5199999999999 78.14214952017122" height="78.14214952017122" width="395.5199999999999"><g><svg viewBox="0 0 548.1974856575403 108.30635591331269" height="78.14214952017122" width="395.5199999999999"><g><rect width="7.067423262244458" height="94.0431455108359" x="414.0211080163467" y="7.1316052012383935" fill="#f6dc4c" opacity="1" stroke-width="0" stroke="transparent" fill-opacity="1" class="rect-yte-0" data-fill-palette-color="primary" rx="1%" id="yte-0" data-palette-color="#f6dc4c"></rect></g><g transform="matrix(1,0,0,1,0,14.968533993808052)"><svg viewBox="0 0 395.52 78.36928792569658" height="78.36928792569658" width="395.52"><g id="textblocktransform"><svg viewBox="0 0 395.52 78.36928792569658" height="78.36928792569658" width="395.52" id="textblock"><g><svg viewBox="0 0 395.52 78.36928792569658" height="78.36928792569658" width="395.52"><g transform="matrix(1,0,0,1,0,0)"><svg width="395.52" viewBox="0.9 -38.4 235.78 46.87" height="78.36928792569658" data-palette-color="#f6dc4c"><g class="wordmark-text-0" data-fill-palette-color="primary" id="text-0"><path d="M0.9-13.04L0.9-13.04Q0.9-14.01 4.19-17.22 7.47-20.43 10.74-23.17L10.74-23.17 14.04-25.9Q14.31-26.1 14.55-26.1L14.55-26.1Q15.09-26.1 16.3-24.63 17.5-23.17 17.5-22.34L17.5-22.34Q17.5-21.95 17.19-21.63L17.19-21.63 7.47-13.04 17.43-4.44Q17.75-4.13 17.75-3.74L17.75-3.74Q17.75-2.91 16.44-1.44 15.14 0.02 14.55 0.02L14.55 0.02Q14.31 0.02 14.04-0.17L14.04-0.17Q13.77-0.39 13.29-0.78 12.82-1.17 11.45-2.33 10.08-3.49 8.85-4.57 7.62-5.64 6.09-7.04 4.57-8.45 3.48-9.56 2.39-10.67 1.65-11.63 0.9-12.6 0.9-13.04ZM30.05-32.28L30.05-4.22 39.52-4.22Q41.6-4.22 43.39-5 45.19-5.79 46.48-7.12 47.78-8.45 48.69-10.23 49.61-12.01 50.06-14.03 50.51-16.04 50.51-18.14L50.51-18.14Q50.51-20.8 49.74-23.29 48.97-25.78 47.54-27.81 46.12-29.83 43.83-31.05 41.55-32.28 38.79-32.28L38.79-32.28 30.05-32.28ZM21.43-36.69L21.43-36.69Q24.66-36.38 30.42-36.38L30.42-36.38Q32.27-36.38 35.09-36.54 37.91-36.69 38.79-36.69L38.79-36.69Q42.43-36.69 45.46-35.66 48.48-34.62 50.56-32.84 52.63-31.05 54.09-28.69 55.54-26.32 56.2-23.68 56.86-21.04 56.86-18.24L56.86-18.24Q56.86-15.38 56.21-12.73 55.56-10.08 54.18-7.7 52.81-5.32 50.8-3.56 48.8-1.81 45.9-0.77 42.99 0.27 39.52 0.27L39.52 0.27Q38.5 0.27 35.68 0.13 32.86 0 30.69 0L30.69 0Q29.66 0 28.2 0.05 26.73 0.1 24.7 0.17 22.68 0.24 21.43 0.27L21.43 0.27Q20.77-0.12 20.46-1.29 20.14-2.47 20.14-3.71L20.14-3.71Q20.14-4.3 20.94-4.59 21.75-4.88 22.87-4.88L22.87-4.88Q23.83-4.88 24.12-5.29 24.41-5.69 24.41-6.42L24.41-6.42 24.41-30Q24.41-30.74 24.12-31.14 23.83-31.54 22.87-31.54L22.87-31.54Q20.14-31.54 20.14-32.81L20.14-32.81Q20.14-34.01 20.46-35.17 20.77-36.33 21.43-36.69ZM77.09-3.32L77.09-3.32Q75.31-1.44 72.59-0.39 69.87 0.66 67.06 0.66L67.06 0.66Q63.57 0.66 61.3-1.2 59.03-3.05 59.03-6.57L59.03-6.57Q59.03-10.33 62.67-12.23L62.67-12.23Q65.4-13.7 72.04-14.77L72.04-14.77Q73.29-14.99 76.09-15.41L76.09-15.41Q76.09-19.56 75.04-21.12 73.99-22.68 71.02-22.68L71.02-22.68Q68.84-22.68 66.18-21.7 63.52-20.73 61.93-18.99L61.93-18.99Q59.96-20.65 59.96-22.24L59.96-22.24Q59.96-23.61 61.84-24.67 63.72-25.73 66.27-26.23 68.82-26.73 71.38-26.73L71.38-26.73Q73.8-26.73 75.62-26.14 77.44-25.54 78.83-24.17 80.22-22.8 80.94-20.41 81.66-18.02 81.66-14.6L81.66-14.6 81.66-6.79Q81.66-5.79 81.82-5.29 81.98-4.79 82.17-4.68 82.37-4.57 82.81-4.52L82.81-4.52Q83.56-4.44 83.93-4.38 84.3-4.32 84.79-4.2 85.27-4.08 85.48-3.88 85.69-3.69 85.69-3.39L85.69-3.39Q85.69-0.51 84.88 0.2L84.88 0.2Q83.71 0 81.83 0L81.83 0Q80.12 0 78.66 0.17L78.66 0.17Q78.49 0.05 78.23-0.17 77.97-0.39 77.53-1.29 77.09-2.2 77.09-3.32ZM68.18-3.69L68.18-3.69Q70.41-3.69 72.99-4.92 75.58-6.15 76.12-7.15L76.12-7.15 76.12-11.47Q69.45-10.28 67.12-9.33 64.79-8.37 64.79-6.64L64.79-6.64Q64.79-3.69 68.18-3.69ZM96.33-23.93L96.33-23.93 96.33-22.34Q97.43-24.1 99.6-25.42 101.77-26.73 103.75-26.73L103.75-26.73Q105.05-26.73 106.22-26.31 107.39-25.88 108.26-24.78 109.12-23.68 109.12-22.09L109.12-22.09Q109.12-17.75 104.51-17.75L104.51-17.75Q104.41-17.75 104.31-17.77 104.22-17.8 104.16-17.85 104.09-17.9 104.05-17.94 104-17.99 103.96-18.09 103.92-18.19 103.9-18.26 103.87-18.33 103.85-18.49 103.83-18.65 103.81-18.75 103.8-18.85 103.79-19.03 103.78-19.21 103.75-19.34L103.75-19.34 103.46-21.88Q102.8-22.19 102.02-22.19L102.02-22.19Q100.6-22.19 99.17-21.15 97.75-20.12 97.06-18.75L97.06-18.75 97.06-6.4Q97.06-6.03 97.1-5.82 97.14-5.62 97.27-5.35 97.4-5.08 97.75-4.94 98.09-4.81 98.63-4.81L98.63-4.81Q99.55-4.81 100.21-4.52 100.87-4.22 100.87-3.64L100.87-3.64Q100.87-2.47 100.48-1.32 100.09-0.17 99.33 0.2L99.33 0.2Q97.62 0 94.33 0 91.03 0 89.27 0.2L89.27 0.2Q88.47-0.17 88.1-1.31 87.74-2.44 87.74-3.64L87.74-3.64Q87.74-4.22 88.4-4.52 89.06-4.81 89.98-4.81L89.98-4.81Q90.93-4.81 91.23-5.21 91.52-5.62 91.52-6.35L91.52-6.35 91.52-19.19Q91.52-20.48 90.78-21.02 90.03-21.56 87.91-21.66L87.91-21.66Q87.59-21.73 87.5-21.97 87.42-22.22 87.42-23.02L87.42-23.02Q87.42-24.27 87.69-25.22 87.96-26.17 88.22-26.32L88.22-26.32Q89.96-26.05 91.62-26.05L91.62-26.05Q92.64-26.05 93.78-26.18 94.91-26.32 94.99-26.32L94.99-26.32Q95.84-26.32 96.09-25.89 96.33-25.46 96.33-23.93ZM119.94-23.93L119.94-23.93 119.94-22.34Q121.03-24.1 123.21-25.42 125.38-26.73 127.36-26.73L127.36-26.73Q128.65-26.73 129.82-26.31 131-25.88 131.86-24.78 132.73-23.68 132.73-22.09L132.73-22.09Q132.73-17.75 128.12-17.75L128.12-17.75Q128.02-17.75 127.92-17.77 127.82-17.8 127.76-17.85 127.7-17.9 127.65-17.94 127.6-17.99 127.57-18.09 127.53-18.19 127.5-18.26 127.48-18.33 127.46-18.49 127.43-18.65 127.42-18.75 127.41-18.85 127.39-19.03 127.38-19.21 127.36-19.34L127.36-19.34 127.07-21.88Q126.41-22.19 125.62-22.19L125.62-22.19Q124.21-22.19 122.78-21.15 121.35-20.12 120.67-18.75L120.67-18.75 120.67-6.4Q120.67-6.03 120.71-5.82 120.74-5.62 120.88-5.35 121.01-5.08 121.35-4.94 121.69-4.81 122.23-4.81L122.23-4.81Q123.16-4.81 123.82-4.52 124.48-4.22 124.48-3.64L124.48-3.64Q124.48-2.47 124.09-1.32 123.7-0.17 122.94 0.2L122.94 0.2Q121.23 0 117.93 0 114.64 0 112.88 0.2L112.88 0.2Q112.07-0.17 111.71-1.31 111.34-2.44 111.34-3.64L111.34-3.64Q111.34-4.22 112-4.52 112.66-4.81 113.59-4.81L113.59-4.81Q114.54-4.81 114.83-5.21 115.13-5.62 115.13-6.35L115.13-6.35 115.13-19.19Q115.13-20.48 114.38-21.02 113.64-21.56 111.51-21.66L111.51-21.66Q111.2-21.73 111.11-21.97 111.03-22.22 111.03-23.02L111.03-23.02Q111.03-24.27 111.29-25.22 111.56-26.17 111.83-26.32L111.83-26.32Q113.56-26.05 115.22-26.05L115.22-26.05Q116.25-26.05 117.39-26.18 118.52-26.32 118.59-26.32L118.59-26.32Q119.45-26.32 119.69-25.89 119.94-25.46 119.94-23.93ZM144.59-20.14L144.59-20.14 150.87-6.18 156.31-20.14Q156.43-20.51 156.43-20.8L156.43-20.8Q156.43-21.26 156.05-21.48 155.68-21.7 155.22-21.73 154.77-21.75 154.39-21.98 154.02-22.22 154.02-22.73L154.02-22.73 154.02-22.9Q154.38-26.17 154.85-26.73L154.85-26.73Q157.24-26.1 160-26.1L160-26.1Q162.93-26.1 165.39-26.73L165.39-26.73Q166.34-26.29 166.34-24.41L166.34-24.41Q166.34-22.92 165.76-22.33 165.17-21.73 163.71-21.73L163.71-21.73Q163.37-21.73 163.1-21.66 162.83-21.58 162.67-21.51 162.51-21.44 162.37-21.24 162.22-21.04 162.17-20.94 162.12-20.83 162.01-20.56 161.9-20.29 161.85-20.19L161.85-20.19 152.09 2.32Q150.65 5.52 148.66 6.99 146.67 8.47 143.79 8.47L143.79 8.47Q141.49 8.47 139.83 7.58 138.17 6.69 138.17 5.57L138.17 5.57Q138.17 4.13 138.42 3.63 138.66 3.13 139.29 3.13L139.29 3.13Q139.54 3.13 140.99 3.48 142.44 3.83 143.69 3.83L143.69 3.83Q144.25 3.83 144.57 3.8 144.88 3.76 145.23 3.54 145.57 3.32 145.74 3.13 145.91 2.93 146.28 2.29 146.64 1.66 146.89 1.11 147.13 0.56 147.73-0.67 148.33-1.9 148.86-3L148.86-3Q147.96-3 147.52-3.16 147.08-3.32 146.86-3.83L146.86-3.83 139.05-20.19Q139.03-20.26 138.9-20.56 138.78-20.85 138.73-20.94 138.68-21.02 138.53-21.23 138.37-21.44 138.21-21.51 138.05-21.58 137.79-21.66 137.54-21.73 137.19-21.73L137.19-21.73Q135.73-21.73 135.14-22.33 134.56-22.92 134.56-24.41L134.56-24.41Q134.56-26.29 135.51-26.73L135.51-26.73Q137.73-26.1 140.91-26.1L140.91-26.1Q144.13-26.1 146.55-26.73L146.55-26.73Q147.01-26.17 147.38-22.9L147.38-22.9 147.38-22.73Q147.38-22.22 146.91-21.97 146.45-21.73 145.91-21.7 145.37-21.68 144.91-21.47 144.45-21.26 144.45-20.8L144.45-20.8Q144.45-20.41 144.59-20.14ZM177.77-6.13L177.77-6.13Q177.77-5.76 177.8-5.55 177.84-5.35 177.98-5.08 178.11-4.81 178.45-4.68 178.79-4.54 179.33-4.54L179.33-4.54Q180.26-4.54 180.92-4.25 181.58-3.96 181.58-3.37L181.58-3.37Q181.58-0.51 180.77 0.2L180.77 0.2Q178.67 0 175.16 0L175.16 0Q171.4 0 169.25 0.2L169.25 0.2Q168.44-0.54 168.44-3.37L168.44-3.37Q168.44-3.96 169.1-4.25 169.76-4.54 170.69-4.54L170.69-4.54Q171.64-4.54 171.93-4.94 172.23-5.35 172.23-6.08L172.23-6.08 172.23-29.52Q172.23-30.81 171.48-31.35 170.74-31.88 168.61-31.98L168.61-31.98Q168.3-32.06 168.21-32.3 168.12-32.54 168.12-33.35L168.12-33.35Q168.12-34.59 168.39-35.55 168.66-36.5 168.93-36.65L168.93-36.65Q170.96-36.38 172.81-36.38L172.81-36.38Q173.91-36.38 175.13-36.51 176.35-36.65 176.43-36.65L176.43-36.65Q177.28-36.65 177.54-36.22 177.79-35.79 177.79-34.25L177.79-34.25Q177.79-34.2 177.79-34.11L177.79-34.11Q177.77-30.66 177.77-6.13Z" fill="#f6dc4c" data-fill-palette-color="primary"></path><path d="M194.98-2.61L194.98-2.61Q196.79-5.71 200.5-12.49 204.21-19.26 208.56-27.31 212.9-35.35 213.66-36.74L213.66-36.74Q214.56-38.4 216.32-38.4L216.32-38.4Q217.1-38.4 217.66-37.85 218.22-37.3 218.22-36.4L218.22-36.4Q218.22-35.62 217.73-34.79L217.73-34.79Q213.46-27.22 199.01-0.63L199.01-0.63Q198.06 1.15 196.37 1.15L196.37 1.15Q195.52 1.15 195.02 0.55 194.52-0.05 194.52-1.05L194.52-1.05Q194.52-1.78 194.98-2.61ZM236.68-13.04L236.68-13.04Q236.68-12.06 233.39-8.85 230.11-5.64 226.84-2.91L226.84-2.91 223.54-0.17Q223.27 0.02 223.03 0.02L223.03 0.02Q222.44 0.02 221.14-1.44 219.83-2.91 219.83-3.74L219.83-3.74Q219.83-4.13 220.15-4.44L220.15-4.44 230.11-13.04 220.39-21.63Q220.08-21.95 220.08-22.34L220.08-22.34Q220.08-23.17 221.28-24.63 222.49-26.1 223.03-26.1L223.03-26.1Q223.27-26.1 223.54-25.9L223.54-25.9Q223.81-25.68 224.29-25.29 224.76-24.9 226.13-23.74 227.5-22.58 228.73-21.51 229.96-20.43 231.49-19.03 233.02-17.63 234.1-16.52 235.19-15.41 235.93-14.44 236.68-13.48 236.68-13.04Z" fill="#f9cc0b" data-fill-palette-color="secondary"></path></g></svg></g></svg></g></svg></g></svg></g><g transform="matrix(1,0,0,1,439.5896392949379,0)"><svg viewBox="0 0 108.6078463626023 108.30635591331269" height="108.30635591331269" width="108.6078463626023"><g><svg xmlns="http://www.w3.org/2000/svg" xml:space="preserve" viewBox="5.958478590560712 6.08 88.08552140943928 87.84100000223839" x="0" y="0" height="108.30635591331269" width="108.6078463626023" class="icon-icon-0" data-fill-palette-color="accent" id="icon-0"><path d="M87.921 64.017c-1.854-1.63-17.356-7.408-25.238-10.109 3.012-3.726 4.971-8.288 5.784-11.438 1.18-1.17 2.043-3.33 2.118-5.423 0.064-1.801-0.465-3.362-1.501-4.468 0.006-0.536 3.317-7.547 0.336-15.516C66.111 8.218 59.389 6.08 55.611 6.08c-4.634 0-8.772 2.64-10.726 4.118-0.989-0.935-2.609-2.065-4.653-2.065-3.293 0-6.983 2.111-9.502 7.698-3.466 7.691-0.566 14.727 0.305 17.193-0.927 0.987-1.425 2.306-1.42 3.814 0.006 2.079 1.004 4.436 2.349 5.687 0.552 2.109 2.108 7.061 5.408 11.383-16.008 6.026-24.514 9.463-25.291 10.22-1.808 1.76-4.854 15.645-6.08 20.673a1.512 1.512 0 0 0 1.468 1.868h12.229l1.472 6.095a1.51 1.51 0 0 0 1.468 1.157H77.87a1.51 1.51 0 0 0 1.468-1.156l1.472-6.096h11.723c0.835 0 1.511-0.677 1.511-1.511 0-0.182-4.202-19.453-6.123-21.141M34.775 41.32a1.5 1.5 0 0 0-0.616-0.894c-0.604-0.413-1.524-2.058-1.524-3.597 0-2.019 1.304-2.066 1.304-2.066 0.307-0.028 2.688-4.897 3.539-7.753 0.737-2.474 1.049-4.361 1.175-5.639 2.111 1.744 5.034 3.768 11.894 3.72 6.507-0.046 10.276-4.721 11.031-5.394 2.606 3.724 4.423 14.985 4.48 15.066 0.046 0.067 1.597 0.063 1.507 2.175-0.073 1.728-0.887 3.16-1.331 3.477a1.5 1.5 0 0 0-0.596 0.897c-0.714 3.15-4.751 16.529-15.618 16.529-11.078 0-14.827-14.783-15.245-16.521m41.906 49.579H23.826L19.722 72.05h61.063z" fill="#f6dc4c" data-fill-palette-color="accent"></path></svg></g></svg></g></svg></g><defs></defs></svg><rect width="395.5199999999999" height="78.14214952017122" fill="none" stroke="none" visibility="hidden"></rect></g></svg></g></svg>